<?xml version="1.0" encoding="utf-8"?>
<!-- Generator: Adobe Illustrator 23.1.1, SVG Export Plug-In . SVG Version: 6.00 Build 0)  -->
<svg version="1.1" id="Layer_1" xmlns="http://www.w3.org/2000/svg" xmlns:xlink="http://www.w3.org/1999/xlink" x="0px" y="0px"
	 viewBox="0 0 231.84987 21" style="enable-background:new 0 0 231.84987 21;" xml:space="preserve">
<style type="text/css">
	.st0{fill:#FF4422;}
	.st1{enable-background:new    ;}
</style>
<g>
	<g>
		<path class="st0" d="M72.59524,18.40926v-4.105c0-1.49687,0.47625-2.56285,2.24525-3.24323l4.39986-1.65562
			c0.52163-0.18139,0.86186-0.40824,0.86186-1.27001V5.7313c0-0.83913-0.45361-1.27001-1.29275-1.27001h-2.6535
			c-0.86186,0-1.29275,0.43088-1.29275,1.27001v1.97312h-2.17725V5.84478c0-2.13187,1.17928-3.33397,3.33388-3.33397h2.99374
			c2.15451,0,3.33388,1.20209,3.33388,3.33397V8.1354c0,1.67826-0.83913,2.49475-2.04113,2.94836l-4.55862,1.72363
			c-0.81649,0.3175-0.92987,0.65774-0.92987,1.38349v2.24525h7.73374v1.97312h-9.95634
			C72.59525,18.40925,72.59525,18.40926,72.59524,18.40926z"/>
		<path class="st0" d="M84.88588,5.84478c0-2.13187,1.17936-3.33397,3.33396-3.33397h3.28851
			c2.13187,0,3.33388,1.20209,3.33388,3.33397v9.32126c0,2.13196-1.202,3.33397-3.33388,3.33397h-3.28851
			c-2.1546,0-3.33396-1.202-3.33396-3.33397V5.84478z M91.32696,16.54952c0.8164,0,1.27001-0.45362,1.27001-1.33812v-9.412
			c0-0.8845-0.45361-1.33812-1.27001-1.33812h-2.90299c-0.86186,0-1.29275,0.45362-1.29275,1.33812v9.412
			c0,0.8845,0.43089,1.33812,1.29275,1.33812H91.32696z"/>
		<path class="st0" d="M97.31937,18.40926v-4.105c0-1.49687,0.47626-2.56285,2.24525-3.24323l4.39986-1.65562
			c0.52162-0.18139,0.86185-0.40824,0.86185-1.27001V5.7313c0-0.83913-0.45361-1.27001-1.29274-1.27001h-2.6535
			c-0.86185,0-1.29274,0.43088-1.29274,1.27001v1.97312h-2.17725V5.84478c0-2.13187,1.17928-3.33397,3.33388-3.33397h2.99373
			c2.15452,0,3.33388,1.20209,3.33388,3.33397V8.1354c0,1.67826-0.83913,2.49475-2.04113,2.94836l-4.55861,1.72363
			c-0.81649,0.3175-0.92987,0.65774-0.92987,1.38349v2.24525h7.73373v1.97312h-9.95631V18.40926z"/>
		<path class="st0" d="M109.61001,5.84478c0-2.13187,1.17937-3.33397,3.33397-3.33397h3.28851
			c2.13187,0,3.33388,1.20209,3.33388,3.33397v9.32126c0,2.13196-1.202,3.33397-3.33388,3.33397h-3.28851
			c-2.1546,0-3.33397-1.202-3.33397-3.33397V5.84478z M116.05109,16.54952c0.8164,0,1.27001-0.45362,1.27001-1.33812v-9.412
			c0-0.8845-0.45361-1.33812-1.27001-1.33812h-2.90299c-0.86186,0-1.29275,0.45362-1.29275,1.33812v9.412
			c0,0.8845,0.43089,1.33812,1.29275,1.33812H116.05109z"/>
	</g>
	<g>
		<path class="st0" d="M29.86434,4.24949C28.74415,3.1293,27.22489,2.5,25.64072,2.5h-8.71259v15.92814h5.97305V8.47305H24.816
			c0.52807,0,1.03585,0.20975,1.40923,0.58313l2.06308,2.06174c0.37344,0.37338,0.58592,0.87982,0.58592,1.40789v5.90233h5.97305
			v-6.72703c0-1.58411-0.63204-3.10337-1.75217-4.22356L29.86434,4.24949z"/>
		<path class="st0" d="M60.73053,2.5v5.90233c0,0.52801-0.21248,1.03446-0.58592,1.40783l-2.06454,2.06175
			c-0.37337,0.37343-0.87976,0.58318-1.40783,0.58318h-1.92023h-0.94897c0.61545-0.95607,0.95443-2.07384,0.95443-3.22811V2.5
			h-5.97305v5.90233c0,0.52801-0.21248,1.03446-0.58592,1.40783l-2.06454,2.06175c-0.37337,0.37343-0.87976,0.58318-1.40783,0.58318
			h-1.91476V2.5h-5.97306v15.92814h8.71259c1.58416,0,3.10483-0.6293,4.22496-1.74949l1.99509-1.99424v3.74373h5.72606
			c1.58416,0,3.10483-0.6293,4.22496-1.74949l3.22945-3.22811c1.12012-1.12014,1.75217-2.6394,1.75217-4.22356V2.5H60.73053z"/>
		<polygon class="st0" points="1,8.47305 4.98204,8.47305 4.98204,18.42814 10.95508,18.42814 10.95508,8.47305 14.93712,8.47305 
			14.93712,2.5 1,2.5 		"/>
	</g>
</g>
<g class="st1">
	<path class="st0" d="M128.06055,9.43848h-1.72754V6.77734h1.72754V2.87891h3.52539v3.89844h1.68066v2.66113h-1.68066v9.08203
		h-3.52539V9.43848z"/>
	<path class="st0" d="M137.9375,3.85938c0,1.16699-0.98047,2.14746-2.14844,2.14746c-1.16699,0-2.12402-0.98047-2.12402-2.14746
		s0.95703-2.125,2.12402-2.125C136.95703,1.73438,137.9375,2.69238,137.9375,3.85938z M134.03906,6.77734h3.52441v11.74316h-3.52441
		V6.77734z"/>
	<path class="st0" d="M151.31445,14.06152c-0.69922,2.87109-3.19727,4.85547-6.16309,4.85547
		c-3.52441,0-6.28027-2.77734-6.28027-6.2793c0-3.52539,2.70898-6.25684,6.1875-6.25684c3.08105,0,5.60254,2.00781,6.23242,4.92578
		h-3.57129c-0.4209-1.02734-1.37793-1.63379-2.54492-1.63379c-1.61035,0-2.77832,1.2832-2.77832,3.01074
		c0,1.70508,1.16797,2.94238,2.77832,2.94238c1.12012,0,1.86816-0.4668,2.5918-1.56445H151.31445z"/>
	<path class="st0" d="M152.41406,2.87891h3.52539v8.14746l3.29102-4.24902h4.15625l-4.41211,5.15918l4.29492,6.58398h-3.99219
		l-3.33789-5.64941v5.64941h-3.52539V2.87891z"/>
	<path class="st0" d="M174.78125,14.85547c-1.09766,2.54395-3.22168,4.06152-5.74219,4.06152
		c-3.38574,0-6.14062-2.77734-6.14062-6.2334c0-3.50098,2.70801-6.30273,6.09375-6.30273c3.52539,0,6.18555,2.75488,6.18555,6.41992
		c0,0.39648-0.02246,0.58398-0.09277,0.95703h-8.77832c0.16406,1.30762,1.19141,2.19434,2.56836,2.19434
		c0.88672,0,1.42383-0.20996,2.14844-0.93359l0.16211-0.16309H174.78125z M171.67578,11.40039
		c-0.23242-1.21484-1.30664-2.03125-2.66016-2.03125c-1.35449,0-2.33496,0.74707-2.63867,2.03125H171.67578z"/>
	<path class="st0" d="M176.83789,9.43848h-1.72754V6.77734h1.72754V2.87891h3.52539v3.89844h1.68066v2.66113h-1.68066v9.08203
		h-3.52539V9.43848z"/>
	<path class="st0" d="M193.04102,10.06934c-0.07031-0.60742-0.37305-0.86426-1.00391-0.86426
		c-0.67676,0-1.12012,0.30371-1.12012,0.74707c0,0.53711,0.58301,0.95801,1.82129,1.28418
		c1.79688,0.49023,2.4043,0.74707,2.98828,1.2373c0.74609,0.63086,1.12012,1.4707,1.12012,2.47461
		c0,2.26465-2.10059,3.99219-4.87891,3.99219c-1.37793,0-2.56836-0.44336-3.47949-1.28418
		c-0.76953-0.72363-1.09668-1.40039-1.21289-2.61426h3.50195c0.09277,0.7002,0.56055,1.07422,1.33008,1.07422
		c0.67773,0,1.21484-0.39746,1.21484-0.91113c0-0.2334-0.11719-0.49023-0.30469-0.65332
		c-0.44336-0.35059-0.44336-0.35059-3.12793-1.05078c-1.44727-0.37305-2.49805-1.72754-2.49805-3.24512
		c0-2.1709,2.10059-3.875,4.73926-3.875c1.51758,0,2.77832,0.55957,3.57227,1.56348c0.49023,0.63086,0.67676,1.14453,0.76953,2.125
		H193.04102z"/>
	<path class="st0" d="M207.02734,17.25977c-0.56055,1.12109-1.75,1.65723-3.6416,1.65723c-3.52539,0-5.95312-2.56738-5.95312-6.2793
		c0-3.68945,2.49805-6.28027,6.0459-6.28027c1.77539,0,2.89551,0.53711,3.54883,1.65723v-1.2373h3.31543v11.74316h-3.31543V17.25977
		z M203.89941,15.62598c1.7041,0,2.94141-1.26074,2.94141-2.98828c0-1.70508-1.26074-2.96484-2.96484-2.96484
		c-1.63379,0-2.91797,1.2832-2.91797,2.94141C200.95801,14.3418,202.21875,15.62598,203.89941,15.62598z"/>
	<path class="st0" d="M212.11914,2.87891h3.52539v15.6416h-3.52539V2.87891z"/>
	<path class="st0" d="M228.83594,14.85547c-1.09766,2.54395-3.22266,4.06152-5.74316,4.06152
		c-3.38574,0-6.13965-2.77734-6.13965-6.2334c0-3.50098,2.70703-6.30273,6.09277-6.30273c3.52539,0,6.18652,2.75488,6.18652,6.41992
		c0,0.39648-0.02344,0.58398-0.09375,0.95703h-8.77734c0.16309,1.30762,1.19043,2.19434,2.56836,2.19434
		c0.88672,0,1.42383-0.20996,2.14746-0.93359l0.16309-0.16309H228.83594z M225.73047,11.40039
		c-0.2334-1.21484-1.30664-2.03125-2.66113-2.03125s-2.33496,0.74707-2.6377,2.03125H225.73047z"/>
</g>
</svg>
